<?xml version="1.0" encoding="UTF-8" standalone="no"?>
<!-- Generator: Adobe Illustrator 19.0.0, SVG Export Plug-In . SVG Version: 6.00 Build 0)  -->

<svg
   version="1.1"
   id="Capa_1"
   x="0px"
   y="0px"
   viewBox="0 0 256 256"
   xml:space="preserve"
   sodipodi:docname="logo.svg"
   width="256"
   height="256"
   inkscape:version="1.4.2 (ebf0e940d0, 2025-05-08)"
   xmlns:inkscape="http://www.inkscape.org/namespaces/inkscape"
   xmlns:sodipodi="http://sodipodi.sourceforge.net/DTD/sodipodi-0.dtd"
   xmlns="http://www.w3.org/2000/svg"
   xmlns:svg="http://www.w3.org/2000/svg"><defs
   id="defs34" /><sodipodi:namedview
   id="namedview34"
   pagecolor="#ffffff"
   bordercolor="#000000"
   borderopacity="0.25"
   inkscape:showpageshadow="2"
   inkscape:pageopacity="0.0"
   inkscape:pagecheckerboard="0"
   inkscape:deskcolor="#d1d1d1"
   inkscape:zoom="0.78515625"
   inkscape:cx="256"
   inkscape:cy="255.36318"
   inkscape:window-width="1920"
   inkscape:window-height="1080"
   inkscape:window-x="0"
   inkscape:window-y="0"
   inkscape:window-maximized="1"
   inkscape:current-layer="Capa_1" />
<path
   style="fill:#82c11f;stroke-width:0.500001"
   d="m 249.82281,163.18618 c 1.77,8.59551 -0.675,17.88652 -7.34051,24.55653 -0.075,0.07 -0.155,0.14 -0.23,0.215 -0.055,9.63551 -3.7555,19.25652 -11.11101,26.61203 -11.06601,11.06602 -27.27204,13.86602 -40.93805,8.40051 -4.63051,-1.85 -8.97051,-4.6505 -12.71602,-8.40051 -14.82102,-14.81602 -14.82102,-38.84255 0,-53.65906 7.35051,-7.35051 16.97102,-11.05602 26.61204,-11.11102 0.07,-0.075 0.14,-0.15 0.215,-0.225 3.26,-3.26 7.1505,-5.5155 11.27601,-6.75551 4.3105,-1.295 8.88551,-1.49 13.27602,-0.585 5.8705,-3.8255 13.81601,-3.165 18.96652,1.98501 5.15551,5.156 5.81551,13.09701 1.99,18.96702 z"
   id="path1" />
<path
   style="fill:#679b04;stroke-width:0.500001"
   d="m 216.46527,198.09872 c -3.2,7.93051 -8.60551,14.68102 -15.63602,19.51653 -3.31,2.285 -6.88551,4.0805 -10.62551,5.3555 -4.63051,-1.85 -8.97051,-4.6505 -12.71602,-8.40051 -14.82102,-14.81602 -14.82102,-38.84255 0,-53.65906 7.35051,-7.35051 16.97102,-11.05602 26.61204,-11.11102 0.07,-0.075 0.14,-0.15 0.215,-0.225 3.26,-3.26 7.1505,-5.5155 11.27601,-6.75551 3.64,7.59051 4.1955,16.30102 1.48,24.35653 3.62001,10.05602 3.42001,20.95203 -0.6055,30.92254 z"
   id="path2" />
<path
   style="fill:#badb47;stroke-width:0.500001"
   d="m 211.36526,196.03872 c -2.89,7.17051 -7.72551,12.97102 -13.65101,17.04602 -10.13552,6.97551 -23.46653,8.89051 -35.72755,3.94551 -19.43152,-7.84051 -28.83203,-29.94704 -20.99152,-49.38357 3.8905,-9.64051 11.29601,-16.81102 20.14652,-20.63152 0.035,-0.1 0.07,-0.2 0.11,-0.295 1.965,-4.87051 5.19551,-8.85551 9.15551,-11.72602 3.14501,-2.285 6.75551,-3.8705 10.57052,-4.6355 3.9055,-5.82051 11.47101,-8.32051 18.23152,-5.59051 6.75551,2.725 10.47051,9.77551 9.24551,16.67602 4.99551,7.21551 6.38051,16.72102 2.85,25.46703 -0.04,0.1 -0.085,0.19 -0.125,0.29 3.72051,8.89102 4.08051,19.19203 0.1855,28.83754 z"
   id="path3" />
<path
   style="fill:#82c11f;stroke-width:0.500001"
   d="m 198.55425,206.22423 c 0,2.32001 -0.28,4.61051 -0.84,6.86051 -10.13552,6.97551 -23.46653,8.89051 -35.72755,3.94551 -19.43152,-7.84051 -28.83203,-29.94704 -20.99152,-49.38357 3.8905,-9.64051 11.29601,-16.81102 20.14652,-20.63152 0.035,-0.1 0.07,-0.2 0.11,-0.295 1.965,-4.87051 5.19551,-8.85551 9.15551,-11.72602 0.97,2.95001 1.465,5.98551 1.465,9.07052 0,7.9755 -3.255,15.56601 -9.39551,22.29152 3.04001,1.28 5.93051,2.65001 8.61051,4.08551 17.71153,9.48601 27.46704,22.19203 27.46704,35.78254 z"
   id="path4" />
<path
   style="fill:#89b4c9;stroke-width:0.500001"
   d="m 193.05374,206.22423 c 0,24.86153 -40.52805,45.11806 -91.20661,45.99306 -1.145,0.025 -2.290006,0.035 -3.445007,0.035 -52.273565,0 -94.6516183,-20.60653 -94.6516183,-46.02806 0,-11.60601 8.8405113,-22.21153 23.4215293,-30.30204 17.351022,-9.64051 42.828053,-15.72101 71.230089,-15.72101 22.661527,0 43.463057,3.8705 59.759077,10.33051 3.6805,1.46 7.13551,3.05 10.32551,4.7605 15.26152,8.17051 24.56703,19.02653 24.56703,30.93204 z"
   id="path5" />
<g
   id="g7"
   transform="matrix(0.50000062,0,0,0.50000062,0,10.013987)">
	<path
   style="fill:#618baa"
   d="m 316.322,321.035 c -6.73,5.8 -14.631,11.181 -23.652,16.071 -30.802,16.701 -71.525,25.902 -114.648,25.902 -43.133,0 -83.846,-9.201 -114.648,-25.902 -3.15,-1.71 -6.16,-3.47 -9.031,-5.29 34.702,-19.281 85.656,-31.442 142.46,-31.442 45.324,0 86.927,7.741 119.519,20.661 z"
   id="path6" />
	<path
   style="fill:#618baa"
   d="m 386.107,392.42 c 0,49.723 -81.056,90.236 -182.413,91.986 162.281,-38.083 156.151,-109.648 133.279,-153.851 30.523,16.342 49.134,38.054 49.134,61.865 z"
   id="path7" />
</g>
<path
   style="fill:#a7c7d3;stroke-width:0.500001"
   d="m 166.37171,144.06516 c 0,23.17152 -34.63255,41.95305 -77.360599,41.95305 -42.728053,0 -77.360096,-18.78153 -77.360096,-41.95305 0,-13.96102 12.571015,-26.33204 31.912039,-33.95255 12.761016,-5.0405 28.462036,-8.00551 45.448057,-8.00551 18.671519,0 35.792549,3.58551 49.158559,9.56051 17.22152,7.69551 28.20204,19.35153 28.20204,32.39755 z"
   id="path8" />
<g
   id="g10"
   transform="matrix(0.50000062,0,0,0.50000062,0,10.013987)">
	<path
   style="fill:#89b4c9"
   d="m 332.743,268.102 c 0,46.343 -69.265,83.906 -154.721,83.906 -63.404,0 -117.888,-20.681 -141.8,-50.274 28.372,18.311 70.925,29.952 118.498,29.952 85.456,0 154.721,-37.563 154.721,-83.906 0,-11.961 -4.62,-23.352 -12.951,-33.652 22.622,14.591 36.253,33.422 36.253,53.974 z"
   id="path9" />
	<path
   style="fill:#89b4c9"
   d="m 276.339,203.307 c -25.672,3.32 -54.464,5.09 -84.326,5.09 -38.133,0 -74.515,-2.88 -104.887,-8.201 25.522,-10.081 56.924,-16.011 90.896,-16.011 37.343,0.001 71.586,7.171 98.317,19.122 z"
   id="path10" />
</g>
<path
   style="fill:#618baa;stroke-width:0.500001"
   d="m 183.49323,87.726085 c 0,11.591014 -39.16805,20.986525 -87.48611,20.986525 -48.31806,0 -87.4866094,-9.396011 -87.4866094,-20.986525 0,-7.215509 15.1860194,-13.586017 38.3125484,-17.361022 14.011017,-2.285003 30.942038,-3.625505 49.173561,-3.625505 11.37601,0 22.24153,0.520001 32.21254,1.470002 32.37754,3.075004 55.27407,10.656014 55.27407,19.516525 z"
   id="path11" />
<g
   id="g13"
   transform="matrix(0.50000062,0,0,0.50000062,0,10.013987)">
	<path
   style="fill:#4e7693"
   d="m 366.986,155.424 c 0,23.182 -78.336,41.973 -174.972,41.973 -84.786,0 -155.491,-14.471 -171.552,-33.672 31.182,11.531 85.316,19.151 146.88,19.151 96.637,0 174.972,-18.791 174.972,-41.973 0,-2.84 -1.18,-5.61 -3.42,-8.291 17.771,6.561 28.092,14.401 28.092,22.812 z"
   id="path12" />
	<path
   style="fill:#4e7693"
   d="m 256.438,116.391 c -19.071,14.981 -49.503,24.512 -84.406,24.512 -31.422,0 -59.224,-7.721 -78.366,-20.201 28.022,-4.57 61.884,-7.251 98.347,-7.251 22.752,0 44.484,1.04 64.425,2.94 z"
   id="path13" />
</g>
<ellipse
   style="fill:#a7c7d3;stroke-width:0.500001"
   cx="86.016106"
   cy="49.37204"
   rx="47.188557"
   ry="25.592031"
   id="ellipse13" />
<path
   d="m 250.48531,141.56965 c -5.909,-5.90951 -15.07002,-7.18201 -22.32452,-3.274 -5.31001,-0.8275 -10.76802,-0.243 -15.76052,1.661 0.48,-7.98951 -4.22701,-15.61652 -11.78952,-18.66802 -7.75101,-3.12651 -16.67952,-0.7125 -21.82653,5.721 -4.074,1.031 -7.92051,2.90651 -11.24751,5.45301 -2.0045,-4.4185 -5.14951,-8.63951 -9.38351,-12.51702 -4.34651,-3.9795 -9.78551,-7.548 -16.06502,-10.58451 5.97751,-0.877 11.56901,-1.93 16.65552,-3.15 18.91102,-4.53651 28.49953,-10.756016 28.49953,-18.486525 0,-6.542009 -6.9205,-12.030515 -20.56902,-16.312521 -9.76201,-3.063004 -22.38653,-5.388007 -36.88455,-6.820008 4.56301,-4.412506 7.16751,-9.608512 7.16751,-15.220519 0,-16.454021 -22.37553,-29.343537 -50.940062,-29.343537 -4.660006,0 -9.279512,0.3545 -13.730518,1.053501 -2.046002,0.321501 -3.444004,2.240503 -3.123004,4.287006 0.321001,2.046502 2.242003,3.445504 4.287006,3.123004 4.067505,-0.638501 8.29551,-0.962502 12.567016,-0.962502 23.546532,0 43.439552,10.002513 43.439552,21.843028 0,11.840514 -19.89302,21.843027 -43.439552,21.843027 -23.54653,0 -43.439055,-10.002513 -43.439055,-21.842527 0,-5.722007 4.884506,-11.407015 13.400517,-15.59652 1.858502,-0.914001 2.624003,-3.162004 1.709502,-5.021006 -0.914001,-1.858502 -3.161504,-2.623503 -5.021006,-1.709002 -11.178514,5.499007 -17.590022,13.636517 -17.590022,22.326028 0,6.618008 3.622504,12.658515 9.808512,17.516522 -17.948522,3.046003 -40.11455,9.171011 -40.11455,20.836526 0,7.730009 9.588512,13.949515 28.499536,18.486525 2.075002,0.4975 4.234505,0.9675 6.468508,1.4095 -19.941025,8.49101 -31.8400401,21.79653 -31.8400401,36.44305 0,10.74701 6.3495081,20.70002 17.4535221,28.57253 C 8.9520112,181.7247 0,193.51472 0,206.22573 c 0,13.80652 10.594513,26.56254 29.833537,35.91705 18.378523,8.93601 42.730054,13.85751 68.569586,13.85751 14.228017,0 27.950037,-1.4755 40.786047,-4.3865 2.02001,-0.458 3.28601,-2.467 2.82801,-4.48701 -0.4585,-2.02 -2.46901,-3.2855 -4.48701,-2.828 -12.29251,2.7875 -25.45703,4.20101 -39.127547,4.20101 -24.725531,0 -47.91306,-4.65351 -65.289582,-13.10252 -16.51652,-8.03151 -25.6130316,-18.39152 -25.6130316,-29.17154 0,-10.56901 9.2050116,-21.10502 25.2910316,-29.00953 7.81601,4.1875 17.232522,7.52651 27.909535,9.73451 0.256,0.053 0.511501,0.0785 0.763001,0.0785 1.741002,0 3.302004,-1.2195 3.669004,-2.99151 0.419501,-2.028 -0.885001,-4.0125 -2.913003,-4.432 -28.004035,-5.79101 -46.820059,-20.07453 -46.820059,-35.54204 0,-13.95152 15.61552,-27.24254 39.78205,-33.85955 0.098,-0.027 0.192,-0.06 0.286,-0.094 12.403516,1.5365 26.218533,2.35151 40.540051,2.35151 10.46551,0 20.66153,-0.43551 30.23354,-1.26901 0.019,0.006 0.0365,0.0145 0.0555,0.0205 22.40653,6.96151 36.32604,19.54903 36.32604,32.85105 0,9.76751 -7.35001,19.13302 -20.69652,26.37153 -14.07252,7.63201 -32.86504,11.83501 -52.915069,11.83501 -3.381504,0 -6.809008,-0.1255 -10.186512,-0.373 -2.066503,-0.1515 -3.863505,1.4005 -4.014505,3.46601 -0.151501,2.0655 1.400501,3.8635 3.466004,4.0145 3.559504,0.2605 7.171509,0.393 10.735513,0.393 21.277529,0 41.340049,-4.5255 56.491069,-12.74251 2.62001,-1.42101 5.04201,-2.92801 7.26651,-4.50851 22.88453,8.09301 36.53655,20.67553 36.53655,33.70654 0,12.36352 -12.59402,24.57203 -33.68855,32.65954 -1.934,0.7415 -2.9005,2.91001 -2.159,4.84451 0.572,1.492 1.994,2.4085 3.50201,2.4085 0.4465,0 0.9,-0.0805 1.3415,-0.2495 13.48201,-5.169 23.78753,-11.88001 30.33204,-19.51002 5.035,2.041 10.33501,3.037 15.60552,3.037 10.85601,-5e-4 21.57902,-4.2195 29.55453,-12.19501 7.44451,-7.44451 11.73202,-17.22753 12.17152,-27.69454 6.39901,-6.91451 9.25501,-16.32152 7.79401,-25.63403 3.907,-7.25401 2.6355,-16.41452 -3.27401,-22.32353 z M 35.021044,98.917599 C 17.027021,94.601093 12.272515,89.708587 12.272515,87.724585 c 0,-1.240502 2.177003,-4.198006 10.337513,-7.41201 7.80101,-3.072503 18.985524,-5.612007 32.343041,-7.343509 0.1025,-0.0135 0.202,-0.0335 0.301,-0.0545 8.493011,3.656005 19.113024,5.800507 30.763039,5.800507 13.264016,0 25.191532,-2.780003 34.165542,-7.405009 42.08405,2.929004 59.56007,12.129515 59.56007,16.414521 0,1.983502 -4.7545,6.876008 -22.74852,11.193014 -16.24602,3.897001 -37.90455,6.043011 -60.98708,6.043011 -23.082529,0 -44.740556,-2.14601 -60.986076,-6.043011 z M 184.84773,182.1452 c -1.307,-1.2125 -2.7215,-2.3965 -4.2325,-3.55 l 8.47601,-21.01003 c 0.7745,-1.9205 -0.154,-4.106 -2.07501,-4.881 -1.9205,-0.77401 -4.106,0.1545 -4.881,2.075 l -7.86951,19.50802 c -4.41801,-2.6815 -9.39751,-5.133 -14.84552,-7.28851 6.98501,-6.848 10.70251,-14.69151 10.70251,-22.93552 0,-1.23801 -0.0955,-2.46901 -0.2655,-3.69351 3.21551,-3.199 7.38751,-5.43651 11.85902,-6.33701 0.969,-0.1955 1.822,-0.765 2.373,-1.586 2.98,-4.43851 8.74851,-6.20651 13.71502,-4.2025 4.967,2.004 7.89401,7.279 6.95951,12.54301 -0.1725,0.9735 0.046,1.9755 0.6085,2.7885 4.471,6.46301 5.389,14.66202 2.461,21.92003 l -0.0215,0.049 c -0.0315,0.07 -0.0625,0.1405 -0.092,0.2115 -0.386,0.9255 -0.3855,1.9665 0.001,2.89101 3.4975,8.35751 3.557,17.58602 0.1675,25.98653 -2.38,5.90101 -6.27301,10.90951 -11.25751,14.61552 0.1145,-1.002 0.174,-2.01001 0.174,-3.02401 5e-4,-8.49351 -4.13451,-16.82052 -11.95752,-24.08003 z m 61.83208,-21.00602 c -0.54,0.8285 -0.7305,1.836 -0.5315,2.8045 1.586,7.69751 -0.7765,15.60202 -6.30601,21.13153 l -0.0415,0.039 c -0.057,0.053 -0.114,0.1065 -0.17,0.1615 -0.7165,0.7005 -1.123,1.6585 -1.129,2.6605 -0.0515,9.05951 -3.60701,17.57602 -10.01101,23.98053 -9.30252,9.30201 -23.15653,12.36652 -35.40755,8.11951 0.0225,-0.0405 0.044,-0.0805 0.066,-0.121 9.92651,-4.42101 17.62352,-12.37952 21.69653,-22.47453 2.4735,-6.13201 3.439,-12.62551 2.9015,-19.03652 l 7.93751,-7.93801 c 1.4645,-1.4645 1.4645,-3.83951 0,-5.30351 -1.4645,-1.4645 -3.8395,-1.4645 -5.3035,0 l -4.37301,4.37301 c -0.2445,-0.7855 -0.5035,-1.56851 -0.7955,-2.34401 2.3865,-6.6455 2.393,-13.80101 0.147,-20.33652 4.048,-1.484 8.48651,-1.828 12.75202,-0.949 0.9685,0.1995 1.976,0.008 2.804,-0.5315 4.479,-2.91851 10.47851,-2.28851 14.26602,1.498 3.787,3.788 4.417,9.78701 1.498,14.26652 z"
   id="path14"
   style="stroke-width:0.500001" />
<path
   d="m 39.63305,195.75122 c 0,-2.071 -1.679003,-3.75051 -3.750505,-3.75051 h -0.0465 c -2.071003,0 -3.727505,1.67901 -3.727505,3.75051 0,2.071 1.702002,3.7505 3.773505,3.7505 2.071002,-5e-4 3.751005,-1.6795 3.751005,-3.7505 z"
   id="path15"
   style="stroke-width:0.500001" />
<path
   d="m 41.049551,210.85624 c 2.071003,0 3.750505,-1.679 3.750505,-3.75051 0,-2.071 -1.679002,-3.7505 -3.750505,-3.7505 h -0.0465 c -2.071002,0 -3.727004,1.679 -3.727004,3.7505 0,2.07151 1.702002,3.75051 3.773504,3.75051 z"
   id="path16"
   style="stroke-width:0.500001" />
<path
   d="m 122.55015,135.71214 c 2.06151,0 3.73901,-1.666 3.75001,-3.7305 0.0105,-2.071 -1.659,-3.7595 -3.73051,-3.7705 h -0.0465 c -0.007,0 -0.0135,0 -0.0205,0 -2.0615,0 -3.716,1.6665 -3.727,3.731 -0.0105,2.071 1.6825,3.7595 3.754,3.7705 0.007,-5e-4 0.0135,-5e-4 0.0205,-5e-4 z"
   id="path17"
   style="stroke-width:0.500001" />
<path
   d="m 55.504069,80.462576 h -0.0465 c -2.071002,0 -3.727504,1.679002 -3.727504,3.750504 0,2.071503 1.702002,3.750505 3.773504,3.750505 2.071503,0 3.750505,-1.679002 3.750505,-3.750505 0,-2.071502 -1.679002,-3.750504 -3.750005,-3.750504 z"
   id="path18"
   style="stroke-width:0.500001" />
<path
   d="m 99.971125,46.560033 c 2.061505,0 3.739005,-1.666002 3.750005,-3.730505 0.0105,-2.071002 -1.659,-3.759504 -3.730505,-3.770504 h -0.0465 c -2.072003,0.0075 -3.736005,1.659502 -3.747005,3.731004 -0.0105,2.071003 1.682502,3.759505 3.754005,3.770505 0.0065,-5e-4 0.0135,-5e-4 0.02,-5e-4 z"
   id="path19"
   style="stroke-width:0.500001" />
<path
   d="m 108.05464,53.122541 c 2.062,0 3.7395,-1.666002 3.75,-3.731004 0.0105,-2.071003 -1.6595,-3.759005 -3.731,-3.770005 h -0.0465 c -0.007,0 -0.013,0 -0.02,0 -2.0615,0 -3.716,1.666502 -3.7265,3.731005 -0.011,2.071002 1.6825,3.759504 3.75401,3.770504 0.007,-5e-4 0.0135,-5e-4 0.02,-5e-4 z"
   id="path20"
   style="stroke-width:0.500001" />
<g
   id="g20"
   transform="matrix(0.50000062,0,0,0.50000062,0,10.013987)">
</g>
<g
   id="g21"
   transform="matrix(0.50000062,0,0,0.50000062,0,10.013987)">
</g>
<g
   id="g22"
   transform="matrix(0.50000062,0,0,0.50000062,0,10.013987)">
</g>
<g
   id="g23"
   transform="matrix(0.50000062,0,0,0.50000062,0,10.013987)">
</g>
<g
   id="g24"
   transform="matrix(0.50000062,0,0,0.50000062,0,10.013987)">
</g>
<g
   id="g25"
   transform="matrix(0.50000062,0,0,0.50000062,0,10.013987)">
</g>
<g
   id="g26"
   transform="matrix(0.50000062,0,0,0.50000062,0,10.013987)">
</g>
<g
   id="g27"
   transform="matrix(0.50000062,0,0,0.50000062,0,10.013987)">
</g>
<g
   id="g28"
   transform="matrix(0.50000062,0,0,0.50000062,0,10.013987)">
</g>
<g
   id="g29"
   transform="matrix(0.50000062,0,0,0.50000062,0,10.013987)">
</g>
<g
   id="g30"
   transform="matrix(0.50000062,0,0,0.50000062,0,10.013987)">
</g>
<g
   id="g31"
   transform="matrix(0.50000062,0,0,0.50000062,0,10.013987)">
</g>
<g
   id="g32"
   transform="matrix(0.50000062,0,0,0.50000062,0,10.013987)">
</g>
<g
   id="g33"
   transform="matrix(0.50000062,0,0,0.50000062,0,10.013987)">
</g>
<g
   id="g34"
   transform="matrix(0.50000062,0,0,0.50000062,0,10.013987)">
</g>
</svg>
